<svg id="visual" viewBox="0 0 900 600" width="900" height="600" xmlns="http://www.w3.org/2000/svg" xmlns:xlink="http://www.w3.org/1999/xlink" version="1.1"><rect x="0" y="0" width="900" height="600" fill="#ffffff"></rect><path d="M0 369L21.5 374.2C43 379.3 86 389.7 128.8 387.3C171.7 385 214.3 370 257.2 373.5C300 377 343 399 385.8 411.3C428.7 423.7 471.3 426.3 514.2 416.3C557 406.3 600 383.7 642.8 373.2C685.7 362.7 728.3 364.3 771.2 367.5C814 370.7 857 375.3 878.5 377.7L900 380L900 601L878.5 601C857 601 814 601 771.2 601C728.3 601 685.7 601 642.8 601C600 601 557 601 514.2 601C471.3 601 428.7 601 385.8 601C343 601 300 601 257.2 601C214.3 601 171.7 601 128.8 601C86 601 43 601 21.5 601L0 601Z" fill="#9b174e"></path><path d="M0 406L21.5 413.8C43 421.7 86 437.3 128.8 438.8C171.7 440.3 214.3 427.7 257.2 424.3C300 421 343 427 385.8 435C428.7 443 471.3 453 514.2 455.5C557 458 600 453 642.8 455.8C685.7 458.7 728.3 469.3 771.2 464.2C814 459 857 438 878.5 427.5L900 417L900 601L878.5 601C857 601 814 601 771.2 601C728.3 601 685.7 601 642.8 601C600 601 557 601 514.2 601C471.3 601 428.7 601 385.8 601C343 601 300 601 257.2 601C214.3 601 171.7 601 128.8 601C86 601 43 601 21.5 601L0 601Z" fill="#ac1f72"></path><path d="M0 439L21.5 448.5C43 458 86 477 128.8 486.2C171.7 495.3 214.3 494.7 257.2 493.2C300 491.7 343 489.3 385.8 490.8C428.7 492.3 471.3 497.7 514.2 495.5C557 493.3 600 483.7 642.8 478.7C685.7 473.7 728.3 473.3 771.2 471.2C814 469 857 465 878.5 463L900 461L900 601L878.5 601C857 601 814 601 771.2 601C728.3 601 685.7 601 642.8 601C600 601 557 601 514.2 601C471.3 601 428.7 601 385.8 601C343 601 300 601 257.2 601C214.3 601 171.7 601 128.8 601C86 601 43 601 21.5 601L0 601Z" fill="#b4329c"></path><path d="M0 539L21.5 532C43 525 86 511 128.8 502.2C171.7 493.3 214.3 489.7 257.2 490.8C300 492 343 498 385.8 501.5C428.7 505 471.3 506 514.2 511.5C557 517 600 527 642.8 526C685.7 525 728.3 513 771.2 503.8C814 494.7 857 488.3 878.5 485.2L900 482L900 601L878.5 601C857 601 814 601 771.2 601C728.3 601 685.7 601 642.8 601C600 601 557 601 514.2 601C471.3 601 428.7 601 385.8 601C343 601 300 601 257.2 601C214.3 601 171.7 601 128.8 601C86 601 43 601 21.5 601L0 601Z" fill="#ae4cca"></path><path d="M0 556L21.5 557.5C43 559 86 562 128.8 559.5C171.7 557 214.3 549 257.2 542.2C300 535.3 343 529.7 385.8 530.8C428.7 532 471.3 540 514.2 547.7C557 555.3 600 562.7 642.8 558.8C685.7 555 728.3 540 771.2 533.2C814 526.3 857 527.7 878.5 528.3L900 529L900 601L878.5 601C857 601 814 601 771.2 601C728.3 601 685.7 601 642.8 601C600 601 557 601 514.2 601C471.3 601 428.7 601 385.8 601C343 601 300 601 257.2 601C214.3 601 171.7 601 128.8 601C86 601 43 601 21.5 601L0 601Z" fill="#9469fa"></path></svg>