<svg id="visual" viewBox="0 0 900 600" width="900" height="600" xmlns="http://www.w3.org/2000/svg" xmlns:xlink="http://www.w3.org/1999/xlink" version="1.1"><g stroke-width="1" stroke-linejoin="bevel"><path d="M427 270L334 184L322 283Z" fill="#ebeff6" stroke="#ebeff6"></path><path d="M427 270L437 124L334 184Z" fill="#d8e0ed" stroke="#d8e0ed"></path><path d="M322 283L325 447L427 270Z" fill="#ffffff" stroke="#ffffff"></path><path d="M427 270L565 138L437 124Z" fill="#5f88b8" stroke="#5f88b8"></path><path d="M582 301L565 138L427 270Z" fill="#5f88b8" stroke="#5f88b8"></path><path d="M475 470L582 301L427 270Z" fill="#c4d1e4" stroke="#c4d1e4"></path><path d="M334 184L148 274L322 283Z" fill="#ebeff6" stroke="#ebeff6"></path><path d="M322 283L148 274L325 447Z" fill="#ffffff" stroke="#ffffff"></path><path d="M155 154L148 274L334 184Z" fill="#5f88b8" stroke="#5f88b8"></path><path d="M313 0L155 154L334 184Z" fill="#477aaf" stroke="#477aaf"></path><path d="M560 0L407 0L437 124Z" fill="#477aaf" stroke="#477aaf"></path><path d="M437 124L313 0L334 184Z" fill="#ebeff6" stroke="#ebeff6"></path><path d="M407 0L313 0L437 124Z" fill="#b1c2db" stroke="#b1c2db"></path><path d="M325 447L475 470L427 270Z" fill="#ffffff" stroke="#ffffff"></path><path d="M749 0L560 0L565 138Z" fill="#ebeff6" stroke="#ebeff6"></path><path d="M565 138L560 0L437 124Z" fill="#7496c0" stroke="#7496c0"></path><path d="M0 257L115 413L148 274Z" fill="#5f88b8" stroke="#5f88b8"></path><path d="M148 274L115 413L325 447Z" fill="#7496c0" stroke="#7496c0"></path><path d="M313 0L127 0L155 154Z" fill="#d8e0ed" stroke="#d8e0ed"></path><path d="M155 154L0 257L148 274Z" fill="#b1c2db" stroke="#b1c2db"></path><path d="M475 470L621 486L582 301Z" fill="#c4d1e4" stroke="#c4d1e4"></path><path d="M582 301L727 287L565 138Z" fill="#c4d1e4" stroke="#c4d1e4"></path><path d="M727 425L727 287L582 301Z" fill="#d8e0ed" stroke="#d8e0ed"></path><path d="M325 447L323 600L475 470Z" fill="#296da6" stroke="#296da6"></path><path d="M475 470L577 600L621 486Z" fill="#477aaf" stroke="#477aaf"></path><path d="M189 600L323 600L325 447Z" fill="#b1c2db" stroke="#b1c2db"></path><path d="M0 119L0 257L155 154Z" fill="#477aaf" stroke="#477aaf"></path><path d="M323 600L469 600L475 470Z" fill="#ebeff6" stroke="#ebeff6"></path><path d="M127 0L0 119L155 154Z" fill="#7496c0" stroke="#7496c0"></path><path d="M710 600L727 425L621 486Z" fill="#c4d1e4" stroke="#c4d1e4"></path><path d="M621 486L727 425L582 301Z" fill="#477aaf" stroke="#477aaf"></path><path d="M0 600L189 600L115 413Z" fill="#296da6" stroke="#296da6"></path><path d="M115 413L189 600L325 447Z" fill="#5f88b8" stroke="#5f88b8"></path><path d="M727 287L759 114L565 138Z" fill="#477aaf" stroke="#477aaf"></path><path d="M900 134L759 114L727 287Z" fill="#5f88b8" stroke="#5f88b8"></path><path d="M469 600L577 600L475 470Z" fill="#477aaf" stroke="#477aaf"></path><path d="M0 257L0 437L115 413Z" fill="#c4d1e4" stroke="#c4d1e4"></path><path d="M127 0L0 0L0 119Z" fill="#89a4c9" stroke="#89a4c9"></path><path d="M759 114L749 0L565 138Z" fill="#b1c2db" stroke="#b1c2db"></path><path d="M577 600L710 600L621 486Z" fill="#c4d1e4" stroke="#c4d1e4"></path><path d="M727 425L900 327L727 287Z" fill="#d8e0ed" stroke="#d8e0ed"></path><path d="M0 437L0 600L115 413Z" fill="#9db3d2" stroke="#9db3d2"></path><path d="M900 446L900 327L727 425Z" fill="#7496c0" stroke="#7496c0"></path><path d="M759 114L900 0L749 0Z" fill="#477aaf" stroke="#477aaf"></path><path d="M900 327L900 134L727 287Z" fill="#d8e0ed" stroke="#d8e0ed"></path><path d="M710 600L900 446L727 425Z" fill="#9db3d2" stroke="#9db3d2"></path><path d="M900 134L900 0L759 114Z" fill="#89a4c9" stroke="#89a4c9"></path><path d="M710 600L900 600L900 446Z" fill="#7496c0" stroke="#7496c0"></path></g></svg>