<svg id="visual" viewBox="0 0 900 600" width="900" height="600" xmlns="http://www.w3.org/2000/svg" xmlns:xlink="http://www.w3.org/1999/xlink" version="1.1"><rect x="0" y="0" width="900" height="600" fill="#FFFFFF"></rect><defs><linearGradient id="grad1_0" x1="33.3%" y1="0%" x2="100%" y2="100%"><stop offset="20%" stop-color="#ffffff" stop-opacity="1"></stop><stop offset="80%" stop-color="#ffffff" stop-opacity="1"></stop></linearGradient></defs><defs><linearGradient id="grad2_0" x1="0%" y1="0%" x2="66.7%" y2="100%"><stop offset="20%" stop-color="#ffffff" stop-opacity="1"></stop><stop offset="80%" stop-color="#ffffff" stop-opacity="1"></stop></linearGradient></defs><g transform="translate(900, 0)"><path d="M0 243.4C-29 214 -58.1 184.6 -97 168C-135.9 151.4 -184.7 147.6 -210.8 121.7C-236.8 95.8 -240.1 47.9 -243.4 0L0 0Z" fill="#790435"></path></g><g transform="translate(0, 600)"><path d="M0 -243.4C33.3 -221.4 66.6 -199.4 105 -181.9C143.4 -164.3 186.9 -151.3 210.8 -121.7C234.7 -92.1 239 -46.1 243.4 0L0 0Z" fill="#790435"></path></g></svg>