<svg id="visual" viewBox="0 0 900 600" width="900" height="600" xmlns="http://www.w3.org/2000/svg" xmlns:xlink="http://www.w3.org/1999/xlink" version="1.1"><rect x="0" y="0" width="900" height="600" fill="#c7427a"></rect><path d="M0 209L100 209L100 273L200 273L200 287L300 287L300 238L400 238L400 297L500 297L500 268L600 268L600 201L700 201L700 229L800 229L800 297L900 297L900 259L900 0L900 0L800 0L800 0L700 0L700 0L600 0L600 0L500 0L500 0L400 0L400 0L300 0L300 0L200 0L200 0L100 0L100 0L0 0Z" fill="#8653a7"></path><path d="M0 145L100 145L100 168L200 168L200 201L300 201L300 163L400 163L400 186L500 186L500 205L600 205L600 207L700 207L700 178L800 178L800 231L900 231L900 186L900 0L900 0L800 0L800 0L700 0L700 0L600 0L600 0L500 0L500 0L400 0L400 0L300 0L300 0L200 0L200 0L100 0L100 0L0 0Z" fill="#773da0"></path><path d="M0 131L100 131L100 129L200 129L200 90L300 90L300 130L400 130L400 123L500 123L500 88L600 88L600 133L700 133L700 106L800 106L800 157L900 157L900 147L900 0L900 0L800 0L800 0L700 0L700 0L600 0L600 0L500 0L500 0L400 0L400 0L300 0L300 0L200 0L200 0L100 0L100 0L0 0Z" fill="#672598"></path><path d="M0 99L100 99L100 81L200 81L200 64L300 64L300 47L400 47L400 100L500 100L500 106L600 106L600 90L700 90L700 57L800 57L800 58L900 58L900 41L900 0L900 0L800 0L800 0L700 0L700 0L600 0L600 0L500 0L500 0L400 0L400 0L300 0L300 0L200 0L200 0L100 0L100 0L0 0Z" fill="#560090"></path></svg>