<svg id="visual" viewBox="0 0 900 600" width="900" height="600" xmlns="http://www.w3.org/2000/svg" xmlns:xlink="http://www.w3.org/1999/xlink" version="1.1"><g stroke-width="1" stroke-linejoin="bevel"><path d="M412 263L496 238L400 180Z" fill="#2c6997" stroke="#2c6997"></path><path d="M412 263L507 266L496 238Z" fill="#459bde" stroke="#459bde"></path><path d="M564 178L469 110L496 238Z" fill="#3479ae" stroke="#3479ae"></path><path d="M496 238L469 110L400 180Z" fill="#459bde" stroke="#459bde"></path><path d="M579 264L564 178L496 238Z" fill="#2c6997" stroke="#2c6997"></path><path d="M507 266L579 264L496 238Z" fill="#2c6997" stroke="#2c6997"></path><path d="M400 180L307 279L412 263Z" fill="#1d496a" stroke="#1d496a"></path><path d="M412 263L391 373L507 266Z" fill="#1d496a" stroke="#1d496a"></path><path d="M507 266L536 365L579 264Z" fill="#0f2c41" stroke="#0f2c41"></path><path d="M469 110L395 70L400 180Z" fill="#163a55" stroke="#163a55"></path><path d="M400 180L264 165L307 279Z" fill="#3479ae" stroke="#3479ae"></path><path d="M307 279L391 373L412 263Z" fill="#0f2c41" stroke="#0f2c41"></path><path d="M693 221L584 122L564 178Z" fill="#3c8ac6" stroke="#3c8ac6"></path><path d="M564 178L584 122L469 110Z" fill="#0f2c41" stroke="#0f2c41"></path><path d="M469 110L500 0L395 70Z" fill="#3c8ac6" stroke="#3c8ac6"></path><path d="M391 373L536 365L507 266Z" fill="#0f2c41" stroke="#0f2c41"></path><path d="M296 63L264 165L400 180Z" fill="#00101c" stroke="#00101c"></path><path d="M395 70L296 63L400 180Z" fill="#3479ae" stroke="#3479ae"></path><path d="M562 0L500 0L469 110Z" fill="#091e2e" stroke="#091e2e"></path><path d="M395 70L379 0L296 63Z" fill="#163a55" stroke="#163a55"></path><path d="M500 0L379 0L395 70Z" fill="#0f2c41" stroke="#0f2c41"></path><path d="M229 83L198 206L264 165Z" fill="#2c6997" stroke="#2c6997"></path><path d="M264 165L198 206L307 279Z" fill="#3c8ac6" stroke="#3c8ac6"></path><path d="M307 279L319 439L391 373Z" fill="#091e2e" stroke="#091e2e"></path><path d="M584 122L562 0L469 110Z" fill="#459bde" stroke="#459bde"></path><path d="M588 460L635 374L536 365Z" fill="#1d496a" stroke="#1d496a"></path><path d="M536 365L635 374L579 264Z" fill="#3c8ac6" stroke="#3c8ac6"></path><path d="M579 264L693 221L564 178Z" fill="#00101c" stroke="#00101c"></path><path d="M584 122L664 0L562 0Z" fill="#3479ae" stroke="#3479ae"></path><path d="M700 317L693 221L579 264Z" fill="#459bde" stroke="#459bde"></path><path d="M296 63L229 83L264 165Z" fill="#00101c" stroke="#00101c"></path><path d="M273 0L229 83L296 63Z" fill="#3479ae" stroke="#3479ae"></path><path d="M217 385L319 439L307 279Z" fill="#459bde" stroke="#459bde"></path><path d="M391 373L397 480L536 365Z" fill="#163a55" stroke="#163a55"></path><path d="M319 439L397 480L391 373Z" fill="#245980" stroke="#245980"></path><path d="M198 206L187 306L307 279Z" fill="#2c6997" stroke="#2c6997"></path><path d="M379 0L273 0L296 63Z" fill="#163a55" stroke="#163a55"></path><path d="M635 374L700 317L579 264Z" fill="#459bde" stroke="#459bde"></path><path d="M187 306L217 385L307 279Z" fill="#1d496a" stroke="#1d496a"></path><path d="M516 529L588 460L536 365Z" fill="#1d496a" stroke="#1d496a"></path><path d="M635 374L678 429L700 317Z" fill="#4facf7" stroke="#4facf7"></path><path d="M319 439L265 461L397 480Z" fill="#1d496a" stroke="#1d496a"></path><path d="M217 385L265 461L319 439Z" fill="#00101c" stroke="#00101c"></path><path d="M736 87L664 0L584 122Z" fill="#091e2e" stroke="#091e2e"></path><path d="M588 460L678 429L635 374Z" fill="#091e2e" stroke="#091e2e"></path><path d="M273 0L209 0L229 83Z" fill="#00101c" stroke="#00101c"></path><path d="M63 105L87 212L198 206Z" fill="#3c8ac6" stroke="#3c8ac6"></path><path d="M198 206L87 212L187 306Z" fill="#2c6997" stroke="#2c6997"></path><path d="M693 221L736 87L584 122Z" fill="#245980" stroke="#245980"></path><path d="M772 66L736 87L815 187Z" fill="#1d496a" stroke="#1d496a"></path><path d="M468 600L516 529L397 480Z" fill="#245980" stroke="#245980"></path><path d="M397 480L516 529L536 365Z" fill="#0f2c41" stroke="#0f2c41"></path><path d="M588 460L680 507L678 429Z" fill="#091e2e" stroke="#091e2e"></path><path d="M63 105L198 206L229 83Z" fill="#2c6997" stroke="#2c6997"></path><path d="M187 306L70 417L217 385Z" fill="#245980" stroke="#245980"></path><path d="M217 385L175 538L265 461Z" fill="#0f2c41" stroke="#0f2c41"></path><path d="M815 187L736 87L693 221Z" fill="#163a55" stroke="#163a55"></path><path d="M736 87L772 66L664 0Z" fill="#091e2e" stroke="#091e2e"></path><path d="M815 187L693 221L810 289Z" fill="#4facf7" stroke="#4facf7"></path><path d="M810 289L693 221L700 317Z" fill="#245980" stroke="#245980"></path><path d="M823 426L810 289L700 317Z" fill="#4facf7" stroke="#4facf7"></path><path d="M606 600L680 507L588 460Z" fill="#0f2c41" stroke="#0f2c41"></path><path d="M678 429L823 426L700 317Z" fill="#4facf7" stroke="#4facf7"></path><path d="M401 600L468 600L397 480Z" fill="#0f2c41" stroke="#0f2c41"></path><path d="M516 529L606 600L588 460Z" fill="#4facf7" stroke="#4facf7"></path><path d="M271 600L401 600L397 480Z" fill="#459bde" stroke="#459bde"></path><path d="M87 212L62 311L187 306Z" fill="#091e2e" stroke="#091e2e"></path><path d="M265 461L271 600L397 480Z" fill="#0f2c41" stroke="#0f2c41"></path><path d="M82 0L63 105L229 83Z" fill="#091e2e" stroke="#091e2e"></path><path d="M87 212L0 236L62 311Z" fill="#4facf7" stroke="#4facf7"></path><path d="M468 600L606 600L516 529Z" fill="#091e2e" stroke="#091e2e"></path><path d="M797 600L775 473L680 507Z" fill="#4facf7" stroke="#4facf7"></path><path d="M680 507L775 473L678 429Z" fill="#163a55" stroke="#163a55"></path><path d="M70 417L175 538L217 385Z" fill="#459bde" stroke="#459bde"></path><path d="M175 538L271 600L265 461Z" fill="#3479ae" stroke="#3479ae"></path><path d="M209 0L82 0L229 83Z" fill="#3479ae" stroke="#3479ae"></path><path d="M62 311L70 417L187 306Z" fill="#3479ae" stroke="#3479ae"></path><path d="M900 127L811 0L772 66Z" fill="#00101c" stroke="#00101c"></path><path d="M772 66L811 0L664 0Z" fill="#459bde" stroke="#459bde"></path><path d="M775 473L823 426L678 429Z" fill="#4facf7" stroke="#4facf7"></path><path d="M810 289L900 181L815 187Z" fill="#163a55" stroke="#163a55"></path><path d="M815 187L900 127L772 66Z" fill="#1d496a" stroke="#1d496a"></path><path d="M0 107L0 236L87 212Z" fill="#0f2c41" stroke="#0f2c41"></path><path d="M62 311L0 319L70 417Z" fill="#0f2c41" stroke="#0f2c41"></path><path d="M0 107L87 212L63 105Z" fill="#3c8ac6" stroke="#3c8ac6"></path><path d="M606 600L683 600L680 507Z" fill="#091e2e" stroke="#091e2e"></path><path d="M900 535L900 377L823 426Z" fill="#00101c" stroke="#00101c"></path><path d="M0 236L0 319L62 311Z" fill="#091e2e" stroke="#091e2e"></path><path d="M0 0L0 107L63 105Z" fill="#00101c" stroke="#00101c"></path><path d="M900 331L900 181L810 289Z" fill="#2c6997" stroke="#2c6997"></path><path d="M68 600L189 600L175 538Z" fill="#1d496a" stroke="#1d496a"></path><path d="M175 538L189 600L271 600Z" fill="#00101c" stroke="#00101c"></path><path d="M74 520L175 538L70 417Z" fill="#4facf7" stroke="#4facf7"></path><path d="M900 181L900 127L815 187Z" fill="#1d496a" stroke="#1d496a"></path><path d="M900 377L900 331L810 289Z" fill="#00101c" stroke="#00101c"></path><path d="M900 377L810 289L823 426Z" fill="#459bde" stroke="#459bde"></path><path d="M0 438L74 520L70 417Z" fill="#459bde" stroke="#459bde"></path><path d="M900 535L823 426L775 473Z" fill="#2c6997" stroke="#2c6997"></path><path d="M82 0L0 0L63 105Z" fill="#459bde" stroke="#459bde"></path><path d="M0 319L0 438L70 417Z" fill="#4facf7" stroke="#4facf7"></path><path d="M900 127L900 0L811 0Z" fill="#3479ae" stroke="#3479ae"></path><path d="M683 600L797 600L680 507Z" fill="#091e2e" stroke="#091e2e"></path><path d="M0 438L0 509L74 520Z" fill="#459bde" stroke="#459bde"></path><path d="M74 520L68 600L175 538Z" fill="#3479ae" stroke="#3479ae"></path><path d="M0 600L68 600L74 520Z" fill="#4facf7" stroke="#4facf7"></path><path d="M797 600L900 535L775 473Z" fill="#00101c" stroke="#00101c"></path><path d="M0 509L0 600L74 520Z" fill="#0f2c41" stroke="#0f2c41"></path><path d="M797 600L900 600L900 535Z" fill="#459bde" stroke="#459bde"></path></g></svg>